<svg width="86" height="32" viewBox="0 0 86 32" fill="none" xmlns="http://www.w3.org/2000/svg">
<path d="M19.7718 18.9247V29.4912H14.642V18.9247L4.55469 2.20691H9.09112C9.53774 2.20691 9.88866 2.31383 10.1439 2.52768C10.4119 2.74153 10.6352 3.01198 10.8138 3.33904L15.8671 12.4527C16.1605 12.9936 16.4158 13.503 16.6327 13.981C16.8624 14.4591 17.0666 14.9371 17.2452 15.4151C17.4111 14.9371 17.6025 14.4591 17.8194 13.981C18.0364 13.503 18.2852 12.9936 18.5659 12.4527L23.6 3.33904C23.7404 3.0623 23.951 2.80442 24.2317 2.56542C24.5124 2.32641 24.8697 2.20691 25.3036 2.20691H29.8592L19.7718 18.9247Z" fill="white"/>
<path d="M45.5557 10.1318V29.4912H42.6654C42.0402 29.4912 41.6446 29.2082 41.4787 28.6421L41.1533 27.0949C40.3494 27.8999 39.4625 28.5541 38.4927 29.0572C37.5229 29.5478 36.3808 29.7931 35.0664 29.7931C33.9945 29.7931 33.0439 29.617 32.2144 29.2648C31.3977 28.9 30.7086 28.3905 30.1472 27.7364C29.5857 27.0823 29.1582 26.3087 28.8647 25.4155C28.584 24.5098 28.4436 23.5161 28.4436 22.4343V10.1318H33.1715V22.4343C33.1715 23.6167 33.4458 24.535 33.9945 25.1891C34.556 25.8307 35.3918 26.1514 36.502 26.1514C37.3187 26.1514 38.0843 25.9753 38.7989 25.6231C39.5135 25.2583 40.1899 24.7614 40.8279 24.1325V10.1318H45.5557Z" fill="white"/>
<path d="M54.7034 13.4905C55.3159 12.3332 56.0432 11.4275 56.8854 10.7734C57.7276 10.1067 58.723 9.7733 59.8714 9.7733C60.7775 9.7733 61.5048 9.96828 62.0535 10.3582L61.7473 13.849C61.6835 14.0754 61.5878 14.2389 61.4602 14.3396C61.3453 14.4276 61.1858 14.4716 60.9816 14.4716C60.7902 14.4716 60.5031 14.4402 60.1203 14.3773C59.7502 14.3144 59.3865 14.2829 59.0292 14.2829C58.506 14.2829 58.0403 14.3584 57.6319 14.5094C57.2236 14.6603 56.8535 14.8805 56.5218 15.1698C56.2027 15.4465 55.9156 15.7862 55.6604 16.1887C55.418 16.5912 55.1883 17.0504 54.9713 17.5661V29.4912H50.2435V10.1318H53.0189C53.5039 10.1318 53.842 10.2199 54.0334 10.396C54.2248 10.5595 54.3524 10.8614 54.4162 11.3017L54.7034 13.4905Z" fill="white"/>
<path d="M81.4452 10.1318V29.4912H78.5549C77.9296 29.4912 77.5341 29.2082 77.3682 28.6421L77.0428 27.0949C76.2388 27.8999 75.352 28.5541 74.3822 29.0572C73.4123 29.5478 72.2703 29.7931 70.9559 29.7931C69.884 29.7931 68.9333 29.617 68.1039 29.2648C67.2872 28.9 66.5981 28.3905 66.0367 27.7364C65.4752 27.0823 65.0477 26.3087 64.7542 25.4155C64.4735 24.5098 64.3331 23.5161 64.3331 22.4343V10.1318H69.0609V22.4343C69.0609 23.6167 69.3353 24.535 69.884 25.1891C70.4455 25.8307 71.2813 26.1514 72.3915 26.1514C73.2082 26.1514 73.9738 25.9753 74.6884 25.6231C75.403 25.2583 76.0793 24.7614 76.7174 24.1325V10.1318H81.4452Z" fill="white"/>
<path d="M34.5474 4.13794C34.5474 3.07146 35.4737 2.20691 36.6164 2.20691H79.3761C80.5188 2.20691 81.4451 3.07146 81.4451 4.13794C81.4451 5.20442 80.5188 6.06898 79.3761 6.06898H36.6164C35.4737 6.06898 34.5474 5.20442 34.5474 4.13794Z" fill="white"/>
</svg>
